# xmcd
#
# Track frame offsets: 
#        150
#        14019
#        25417
#        41644
#        55648
#        72776
#        84932
#        98166
#        108199
#        117089
#        123404
#        134059
#        152044
#        165366
#        180840
#        211024
#
# Disc length: 3021 seconds
#
# Revision: 0
# Processed by: cddbd v1.5.2PL0 Copyright (c) Steve Scherf et al.
# Submitted via: ExactAudioCopy v0.95b4
#
DISCID=c50bcb10
DTITLE=Tim Sparks - Pickin' Up The Pieces
DYEAR=1900
DGENRE=Acoustic
TTITLE0=The Mississippi Blues
TTITLE1=Mapleleaf Rag
TTITLE2=JellyRoll Blues
TTITLE3=There Ain't No Sweet Man Worth the Salt of My Tears
TTITLE4=Oriental Blues
TTITLE5=Sidewalk Blues
TTITLE6=The Pearls
TTITLE7=March of the Toy Soldiers
TTITLE8=Dance of the Sugar Plum Fairies
TTITLE9=Cossack Dance
TTITLE10=One String Leads to Another
TTITLE11=Trap Hill Breakdown
TTITLE12=Elegy for Max
TTITLE13=The Blues on Bartok Street
TTITLE14=XODO
TTITLE15=Mister Marquez
EXTD=
EXTT0=
EXTT1=
EXTT2=
EXTT3=
EXTT4=
EXTT5=
EXTT6=
EXTT7=
EXTT8=
EXTT9=
EXTT10=
EXTT11=
EXTT12=
EXTT13=
EXTT14=
EXTT15=
PLAYORDER=
